<svg width="1115" height="412" xmlns="http://www.w3.org/2000/svg" xmlns:xlink="http://www.w3.org/1999/xlink" overflow="hidden"><defs><clipPath id="clip0"><rect x="0" y="0" width="1115" height="412"/></clipPath></defs><g clip-path="url(#clip0)"><rect x="0" y="0" width="1115" height="412" fill="#FFFFFF"/><g><g><g><path d="M673.014 96.3465 673.014 164.053 619.395 96.3465 599.816 96.3465 599.816 213.825 622.144 213.825 622.144 139.53 681.619 213.825 695.52 213.825 695.52 96.3465 673.014 96.3465Z" fill="#231815" transform="matrix(1.00163 0 0 1 -61 51)"/><path d="M532.154 164.233 563.998 164.233 563.998 144.475 532.154 144.475 532.154 116.291 572.506 116.291 572.506 96.3465 507.085 96.3465 507.085 213.825 572.506 213.825 572.506 193.328 532.154 193.328 532.154 164.233Z" fill="#231815" transform="matrix(1.00163 0 0 1 -61 51)"/><path d="M429.929 192.783 486.476 96.3465 396.994 96.3465 396.994 116.291 447.132 116.291 391.504 213.825 480.986 213.825 480.986 192.783 429.929 192.783Z" fill="#231815" transform="matrix(1.00163 0 0 1 -61 51)"/><path d="M341.486 213.825 341.486 96.6976 366.48 96.6976 366.48 213.825 341.486 213.825Z" fill="#231815" transform="matrix(1.00163 0 0 1 -61 51)"/><path d="M97.9301 96.7051 122.924 96.7051 122.924 213.825 97.9301 213.825Z" fill="#231815" transform="matrix(1.00163 0 0 1 -61 51)"/><path d="M193.858 206.916 152.849 151.795 194.62 96.7051 167.079 96.7051 125.113 155.261 168.535 213.825 193.858 213.825 193.858 206.916Z" fill="#231815" transform="matrix(1.00163 0 0 1 -61 51)"/><path d="M253.498 188.913C250.301 188.913 247.582 188.6 245.371 188.159 236.459 186.411 229.646 181.75 226.188 175.027 224.007 170.784 225.673 165.577 229.915 163.396 234.158 161.215 239.357 162.881 241.546 167.124 242.51 168.991 245.184 170.522 248.695 171.21 252.84 172.024 260.079 172.113 270.992 167.9 282.287 163.546 294.567 155.725 307.505 144.647 311.128 141.547 316.581 141.965 319.681 145.588 322.781 149.211 322.363 154.664 318.74 157.764 288.853 183.356 266.906 188.906 253.505 188.906Z" fill="#231815" transform="matrix(1.00163 0 0 1 -61 51)"/><path d="M305.817 115.723C296.898 89.5489 282.1 84.0511 271.246 84.0436 260.96 84.0436 250.936 88.0773 241.456 96.0253 232.605 103.45 223.999 114.558 215.872 129.05 199.52 158.205 184.237 202.501 170.433 260.699 169.85 263.156 170.261 265.689 171.583 267.84 172.905 269.991 174.989 271.493 177.447 272.075 178.164 272.247 178.904 272.329 179.636 272.329 184.035 272.329 187.808 269.341 188.824 265.054 202.217 208.566 216.866 165.921 232.358 138.29 239.365 125.8 246.506 116.448 253.602 110.502 259.668 105.415 265.442 102.942 271.246 102.942 274.608 102.942 277.439 104.332 280.173 107.32 283.138 110.569 285.745 115.44 287.912 121.811 292.095 134.077 293.589 149.151 293.604 158.324 293.619 169.88 291.96 181.391 288.808 191.602 285.678 201.739 281.211 210.128 275.885 215.872 274.167 217.725 273.271 220.13 273.368 222.655 273.465 225.18 274.533 227.51 276.386 229.228 280.21 232.769 286.201 232.545 289.742 228.72 296.98 220.914 302.904 210.008 306.863 197.175 310.568 185.178 312.517 171.733 312.502 158.294 312.487 147.172 310.725 130.148 305.802 115.708Z" fill="#231815" transform="matrix(1.00163 0 0 1 -61 51)"/><path d="M252.728 134.518C249.994 133.756 247.163 135.362 246.401 138.096 245.154 142.585 245.229 146.955 245.408 151.041 245.527 153.797 247.783 155.949 250.54 155.949L250.771 155.949C252.146 155.881 253.408 155.291 254.334 154.275 255.261 153.267 255.739 151.952 255.679 150.578 255.53 147.179 255.462 143.877 256.306 140.837 257.061 138.111 255.462 135.272 252.728 134.518Z" fill="#FF5C35" transform="matrix(1.00163 0 0 1 -61 51)"/><path d="M272.673 137.446C272.449 134.622 269.969 132.516 267.153 132.725 264.329 132.949 262.208 135.421 262.432 138.245 262.574 140.06 262.372 141.868 261.834 143.623 260.998 146.327 262.521 149.211 265.233 150.047 265.726 150.197 266.234 150.279 266.742 150.279 269.013 150.279 270.985 148.822 271.65 146.656 272.568 143.661 272.912 140.568 272.673 137.453Z" fill="#FF5C35" transform="matrix(1.00163 0 0 1 -61 51)"/><path d="M876.971 119.951C870.256 131.096 856.676 149.106 842.67 159.116L827.805 147.254C839.241 140.247 850.386 127.675 854.106 120.668L779.639 120.668C773.633 120.668 768.919 121.094 762.204 121.669L762.204 101.8C767.635 102.659 773.641 103.226 779.639 103.226L856.676 103.226C860.679 103.226 868.538 102.8 871.257 101.941L882.551 112.519C880.975 114.379 878.264 117.807 876.979 119.951ZM784.636 217.291 767.911 203.711C772.483 202.142 777.629 199.707 782.918 195.853 801.07 183.273 804.499 168.125 804.499 144.684 804.499 140.254 804.215 136.393 803.498 131.821L824.227 131.821C824.227 167.266 823.509 196.428 784.636 217.291Z" fill="#231815" transform="matrix(1.00163 0 0 1 -61 51)"/><path d="M1013.17 87.3602C1022.46 87.3602 1030.18 95.0766 1030.18 104.511 1030.18 113.946 1022.46 121.52 1013.17 121.52 1012.59 121.52 1011.88 121.52 1011.31 121.378 1010.88 122.954 1010.59 124.381 1010.17 125.666 1006.88 139.672 1000.73 161.827 988.728 177.693 975.865 194.844 956.712 208.992 931.27 217.284L915.688 200.133C943.991 193.56 960.141 181.122 971.719 166.541 981.154 154.679 986.584 138.529 988.444 126.233L921.985 126.233C915.411 126.233 908.547 126.517 904.976 126.809L904.976 106.655C909.122 107.23 917.271 107.798 921.985 107.798L988.16 107.798C990.162 107.798 993.307 107.656 996.31 107.23 996.168 106.371 996.026 105.512 996.026 104.511 996.026 95.0766 1003.74 87.3602 1013.18 87.3602ZM1013.17 112.661C1017.6 112.661 1021.32 108.948 1021.32 104.511 1021.32 100.074 1017.61 96.2195 1013.17 96.2195 1008.73 96.2195 1004.88 99.9395 1004.88 104.511 1004.88 109.083 1008.6 112.661 1013.17 112.661Z" fill="#231815" transform="matrix(1.00163 0 0 1 -61 51)"/><path d="M1076.56 110.517 1076.56 158.825C1076.56 162.395 1076.7 167.975 1076.98 171.262L1056.26 171.262C1056.4 168.543 1056.97 162.97 1056.97 158.683L1056.97 110.517C1056.97 107.798 1056.83 102.8 1056.4 99.5137L1076.98 99.5137C1076.69 102.8 1076.55 105.945 1076.55 110.517ZM1142.73 112.661 1142.73 140.964C1142.73 171.695 1136.73 184.984 1126.15 196.704 1116.72 206.998 1101.85 213.997 1091.42 217.284L1076.55 201.56C1090.7 198.273 1102.28 192.842 1110.85 183.55 1120.71 172.831 1122.57 162.111 1122.57 139.814L1122.57 112.653C1122.57 106.939 1122.29 102.36 1121.71 98.3634L1143.29 98.3634C1143.01 102.367 1142.72 106.939 1142.72 112.653Z" fill="#231815" transform="matrix(1.00163 0 0 1 -61 51)"/><path d="M1215.1 119.862 1224.16 123.866C1214.62 134.159 1207.1 147.306 1207.1 165.6 1207.1 183.893 1214.63 197.048 1224.16 207.334L1215.1 211.338C1204.81 201.239 1196.33 185.993 1196.33 165.6 1196.33 145.207 1204.81 129.961 1215.1 119.862Z" fill="#FF5C35" transform="matrix(1.00163 0 0 1 -61 51)"/><path d="M1261.51 124.822C1259.03 130.917 1255.98 137.207 1252.55 143.213L1252.55 209.911 1241.78 209.911 1241.78 159.407C1239.21 162.739 1236.63 165.697 1233.96 168.364 1232.92 165.6 1229.86 159.31 1227.96 156.546 1237.01 148.158 1245.77 134.824 1250.92 121.288L1261.5 124.814ZM1315.82 152.834C1313.06 167.886 1308.19 179.994 1301.53 189.615 1306.77 194.284 1312.87 198.004 1320.02 200.574 1317.45 202.86 1314.11 207.244 1312.39 210.292 1305.34 207.334 1299.24 203.338 1294.1 198.475 1289.05 203.524 1283.33 207.431 1277.04 210.389 1275.52 207.722 1271.9 203.054 1269.51 201.239 1275.99 198.572 1281.71 194.852 1286.66 190.093 1282.09 183.998 1278.37 176.849 1275.33 168.939 1274.18 183.229 1270.94 199.334 1262.94 210.389 1261.04 208.29 1256.37 204.48 1253.89 203.24 1263.89 189.137 1264.65 168.364 1264.65 153.596L1264.65 125.867 1316.58 125.867 1316.58 136.639 1275.89 136.639 1275.89 150.548 1306.96 150.548 1308.86 150.264 1315.82 152.834ZM1283.52 161.028C1286 168.558 1289.53 175.415 1294 181.324 1297.91 175.609 1300.86 168.842 1302.96 161.028L1283.52 161.028Z" fill="#FF5C35" transform="matrix(1.00163 0 0 1 -61 51)"/><path d="M1339.92 211.338 1330.87 207.334C1340.4 197.04 1347.92 183.893 1347.92 165.6 1347.92 147.306 1340.4 134.152 1330.87 123.866L1339.92 119.862C1350.22 129.961 1358.7 145.207 1358.7 165.6 1358.7 185.993 1350.22 201.239 1339.92 211.338Z" fill="#FF5C35" transform="matrix(1.00163 0 0 1 -61 51)"/></g></g></g></g></svg>